<svg xmlns="http://www.w3.org/2000/svg" width="29" height="26" viewBox="0 0 29 26">
  <path fill="#fff" d="M20.5917,1.0039 C20.2852,0.8774 19.9346,1.0232 19.8082,1.3295 C19.6817,1.6358 19.8275,1.9866 20.1338,2.113 C24.5026,3.9166 27.3255,8.1361 27.3255,12.8627 C27.3255,19.2725 22.1108,24.4872 15.7009,24.4872 C15.3695,24.4872 15.1009,24.7559 15.1009,25.0872 C15.1009,25.4185 15.3695,25.6872 15.7009,25.6872 C22.7724,25.6872 28.5255,19.9342 28.5255,12.8627 C28.5255,7.6485 25.4113,2.9936 20.5917,1.0039 Z"/>
  <path fill="#fff" d="M15.7009,21.193 C20.2943,21.193 24.0313,17.456 24.0313,12.8627 C24.0313,8.2694 20.2943,4.5324 15.7009,4.5324 C15.3696,4.5324 15.1009,4.8011 15.1009,5.1324 C15.1009,5.4638 15.3696,5.7324 15.7009,5.7324 C19.6326,5.7324 22.8313,8.931 22.8313,12.8627 C22.8313,16.7944 19.6326,19.993 15.7009,19.993 C15.3696,19.993 15.1009,20.2616 15.1009,20.593 C15.1009,20.9244 15.3696,21.193 15.7009,21.193 Z"/>
  <path fill="#fff" d="M17.6538 14.9604C17.4114 15.1862 17.3979 15.5659 17.6238 15.8083 17.742 15.9352 17.9022 15.9994 18.063 15.9994 18.2094 15.9994 18.3562 15.9461 18.4718 15.8384 19.2949 15.0717 19.767 13.9871 19.767 12.8627 19.767 10.6208 17.943 8.7968 15.701 8.7968 15.3697 8.7968 15.101 9.0655 15.101 9.3968 15.101 9.7281 15.3697 9.9968 15.701 9.9968 17.2813 9.9968 18.567 11.2824 18.567 12.8627 18.5669 13.6669 18.2426 14.4118 17.6538 14.9604zM13.079.084C12.8549-.0088 12.5969.0423 12.4252.2136L6.0844 6.5448.6 6.5448C.2687 6.5448 0 6.8135 0 7.1448L0 18.5806C0 18.9119.2687 19.1806.6 19.1806L6.3326 19.1806C6.6639 19.1806 6.9326 18.9119 6.9326 18.5806 6.9326 18.2493 6.6639 17.9806 6.3326 17.9806L1.2 17.9806 1.2 7.7448 6.3326 7.7448C6.4916 7.7448 6.644 7.6817 6.7565 7.5694L12.2491 2.0852 12.2491 23.6403 9.2864 20.682C9.0518 20.4479 8.6719 20.4481 8.4379 20.6827 8.2038 20.9172 8.2041 21.2971 8.4386 21.5312L12.4253 25.5118C12.54 25.6264 12.6934 25.6872 12.8494 25.6872 12.9267 25.6872 13.0048 25.6723 13.0791 25.6414 13.3032 25.5485 13.4493 25.3297 13.4493 25.0872L13.4493.6382C13.4491.3956 13.303.1769 13.079.084z"/>
</svg>
