<svg xmlns="http://www.w3.org/2000/svg" width="123" height="50" viewBox="0 0 123 50">
  <path fill="#FFF" fill-rule="evenodd" d="M55.448,125.712 L48.896,132.336 L55.52,139.032 L52.712,139.032 L46.088,132.336 L52.712,125.712 L55.448,125.712 Z M44.144,125.712 L44.144,139.032 L42.056,139.032 L42.056,125.712 L44.144,125.712 Z M39.32,125.712 L39.32,127.728 L28.016,127.728 L28.016,131.4 L33.848,131.4 L33.848,133.344 L28.016,133.344 L28.016,137.016 L39.32,137.016 L39.32,139.032 L26,139.032 L26,125.712 L39.32,125.712 Z M119.096,125.712 L124.28,132.84 L129.464,125.712 L132.199,125.712 L132.199,139.032 L130.112,139.032 L130.112,128.16 L124.28,136.368 L118.304,128.088 L118.304,139.032 L116.216,139.032 L116.216,125.712 L119.096,125.712 Z M83.024,125.712 L93.824,136.512 L93.824,125.712 L95.84,125.712 L95.84,139.032 L93.464,139.032 L82.664,128.16 L82.664,139.032 L80.576,139.032 L80.576,125.712 L83.024,125.712 Z M107.648,125.712 L113.84,139.032 L111.464,139.032 L110.24,136.368 L104.336,136.368 L105.199,134.424 L109.448,134.424 L106.064,127.368 L100.592,139.032 L98.288,139.032 L104.48,125.712 L107.648,125.712 Z M69.056,125.712 C70.0845714,125.712 70.9172245,126.495673 70.9941924,127.441057 L71,127.584 L71,137.088 C71,138.116571 70.2163265,138.883918 69.2087464,138.954667 L69.056,138.96 L59.552,138.96 C58.592,138.96 57.7626122,138.241633 57.6857998,137.240272 L57.68,137.088 L57.68,127.584 C57.68,126.624 58.4636735,125.794612 59.4090573,125.7178 L59.552,125.712 L69.056,125.712 Z M148.1116,125.7119 L148.1116,127.7279 L136.8076,127.7279 L136.8076,131.3999 L146.1686,131.3999 C147.197171,131.3999 148.028917,132.183573 148.105799,133.191154 L148.1116,133.3439 L148.1116,137.0879 C148.1116,138.0479 147.328834,138.877288 146.32134,138.9541 L146.1686,138.9599 L134.7926,138.9599 L134.7926,137.0159 L146.0956,137.0159 L146.0956,133.4159 L136.7356,133.4159 C135.707029,133.4159 134.875283,132.632227 134.798401,131.686843 L134.7926,131.5439 L134.7926,127.6559 C134.7926,126.627329 135.575366,125.794676 136.58286,125.717708 L136.7356,125.7119 L148.1116,125.7119 Z M68.984,127.656 L59.624,127.656 L59.624,137.016 L68.984,137.016 L68.984,127.656 Z M94.328,90 L94.328,95.328 L140.912,119.88 L139.544,119.88 L92.456,96.336 L92.456,91.872 L83.96,91.872 L83.96,96.336 L35.216,119.88 L33.776,119.88 L82.088,95.256 L82.088,90 L94.328,90 Z M108.944,112.5358 L123.92,119.8798 L121.4,119.8798 L108.872,113.7598 L107.864,114.2638 L96.056,119.8798 L93.464,119.8798 L107.36,113.1838 L108.944,112.5358 Z M67.4719,112.5358 L68.9839,113.1838 L82.8799,119.8798 L80.2879,119.8798 L68.5519,114.1918 L67.4719,113.7598 L55.0159,119.8798 L52.4959,119.8798 L67.4719,112.5358 Z M92.456,104.0399 L104.768,109.8719 L103.4,110.5199 L93.68,105.9839 L93.68,115.2719 L92.456,115.9199 L92.456,104.0399 Z M83.9602,104.0399 L83.9602,115.9199 L82.7362,115.2719 L82.7362,105.9839 L73.0882,110.5199 L71.6482,109.8719 L83.9602,104.0399 Z" transform="translate(-26 -90)"/>
</svg>
