<?xml version="1.0" encoding="UTF-8"?>
<svg width="1170px" height="32px" viewBox="0 0 1170 32" version="1.1" xmlns="http://www.w3.org/2000/svg" xmlns:xlink="http://www.w3.org/1999/xlink">
    <!-- Generator: sketchtool 63.1 (101010) - https://sketch.com -->
    <title>E1C9871D-2A24-4C5A-8A1B-C6F6C521D7A7</title>
    <desc>Created with sketchtool.</desc>
    <g id="apstiprinats" stroke="none" stroke-width="1" fill="none" fill-rule="evenodd">
        <g id="EKO-nams-sakumlapa-apstiprinats-dizains-ar-proporciju-2" transform="translate(-85.000000, -3600.000000)" fill="#CCC8C8">
            <g id="Footer" transform="translate(60.000000, 3394.000000)">
                <g id="Footer-bottom" transform="translate(0.000000, 199.000000)">
                    <g id="Shape-2" transform="translate(25.000000, 0.000000)">
                        <g id="Shape-3" transform="translate(0.000000, -0.000000)">
                            <g transform="translate(-0.000000, 0.000000)" id="Group-9">
                                <g transform="translate(0.000000, 7.000000)">
                                    <path d="M1.39647479,7.38964445e-13 L1.39647479,31.6719745 L0,31.6719745 L0,7.38964445e-13 L1.39647479,7.38964445e-13 Z M7.90075627,15.8359873 L7.90075627,31.6719745 L6.50428148,31.6719745 L6.50428148,15.8359873 L7.90075627,15.8359873 Z M14.4050377,15.8359873 L14.4050377,31.6719745 L13.008563,31.6719745 L13.008563,15.8359873 L14.4050377,15.8359873 Z M20.9093192,15.8359873 L20.9093192,31.6719745 L19.5128444,31.6719745 L19.5128444,15.8359873 L20.9093192,15.8359873 Z M27.4136007,15.8359873 L27.4136007,31.6719745 L26.0171259,31.6719745 L26.0171259,15.8359873 L27.4136007,15.8359873 Z M33.9178822,9.31528662 L33.9178822,31.6719745 L32.5214074,31.6719745 L32.5214074,9.31528662 L33.9178822,9.31528662 Z M40.4221637,15.8359873 L40.4221637,31.6719745 L39.0256889,31.6719745 L39.0256889,15.8359873 L40.4221637,15.8359873 Z M46.9264451,15.8359873 L46.9264451,31.6719745 L45.5299703,31.6719745 L45.5299703,15.8359873 L46.9264451,15.8359873 Z M53.4307266,15.8359873 L53.4307266,31.6719745 L52.0342518,31.6719745 L52.0342518,15.8359873 L53.4307266,15.8359873 Z M59.9350081,15.8359873 L59.9350081,31.6719745 L58.5385333,31.6719745 L58.5385333,15.8359873 L59.9350081,15.8359873 Z M66.3188929,7.38964445e-13 L66.3188929,31.6719745 L64.9224181,31.6719745 L64.9224181,7.38964445e-13 L66.3188929,7.38964445e-13 Z M72.8231743,15.8359873 L72.8231743,31.6719745 L71.4266995,31.6719745 L71.4266995,15.8359873 L72.8231743,15.8359873 Z M79.3274558,15.8359873 L79.3274558,31.6719745 L77.930981,31.6719745 L77.930981,15.8359873 L79.3274558,15.8359873 Z M85.8317373,15.8359873 L85.8317373,31.6719745 L84.4352625,31.6719745 L84.4352625,15.8359873 L85.8317373,15.8359873 Z M92.3360188,15.8359873 L92.3360188,31.6719745 L90.939544,31.6719745 L90.939544,15.8359873 L92.3360188,15.8359873 Z M98.8403002,9.31528662 L98.8403002,31.6719745 L97.4438255,31.6719745 L97.4438255,9.31528662 L98.8403002,9.31528662 Z M105.344582,15.8359873 L105.344582,31.6719745 L103.948107,31.6719745 L103.948107,15.8359873 L105.344582,15.8359873 Z M111.848863,15.8359873 L111.848863,31.6719745 L110.452388,31.6719745 L110.452388,15.8359873 L111.848863,15.8359873 Z M118.353145,15.8359873 L118.353145,31.6719745 L116.95667,31.6719745 L116.95667,15.8359873 L118.353145,15.8359873 Z M124.857426,15.8359873 L124.857426,31.6719745 L123.460951,31.6719745 L123.460951,15.8359873 L124.857426,15.8359873 Z M131.241311,7.38964445e-13 L131.241311,31.6719745 L129.844836,31.6719745 L129.844836,7.38964445e-13 L131.241311,7.38964445e-13 Z M137.745592,15.8359873 L137.745592,31.6719745 L136.349118,31.6719745 L136.349118,15.8359873 L137.745592,15.8359873 Z M144.249874,15.8359873 L144.249874,31.6719745 L142.853399,31.6719745 L142.853399,15.8359873 L144.249874,15.8359873 Z M150.754155,15.8359873 L150.754155,31.6719745 L149.357681,31.6719745 L149.357681,15.8359873 L150.754155,15.8359873 Z M157.258437,15.8359873 L157.258437,31.6719745 L155.861962,31.6719745 L155.861962,15.8359873 L157.258437,15.8359873 Z M163.762718,9.31528662 L163.762718,31.6719745 L162.366244,31.6719745 L162.366244,9.31528662 L163.762718,9.31528662 Z M170.267,15.8359873 L170.267,31.6719745 L168.870525,31.6719745 L168.870525,15.8359873 L170.267,15.8359873 Z M176.771281,15.8359873 L176.771281,31.6719745 L175.374806,31.6719745 L175.374806,15.8359873 L176.771281,15.8359873 Z M183.275563,15.8359873 L183.275563,31.6719745 L181.879088,31.6719745 L181.879088,15.8359873 L183.275563,15.8359873 Z M189.779844,15.8359873 L189.779844,31.6719745 L188.383369,31.6719745 L188.383369,15.8359873 L189.779844,15.8359873 Z M196.163729,7.38964445e-13 L196.163729,31.6719745 L194.767254,31.6719745 L194.767254,7.38964445e-13 L196.163729,7.38964445e-13 Z M202.66801,15.8359873 L202.66801,31.6719745 L201.271536,31.6719745 L201.271536,15.8359873 L202.66801,15.8359873 Z M209.172292,15.8359873 L209.172292,31.6719745 L207.775817,31.6719745 L207.775817,15.8359873 L209.172292,15.8359873 Z M215.676573,15.8359873 L215.676573,31.6719745 L214.280099,31.6719745 L214.280099,15.8359873 L215.676573,15.8359873 Z M222.180855,15.8359873 L222.180855,31.6719745 L220.78438,31.6719745 L220.78438,15.8359873 L222.180855,15.8359873 Z M228.685136,9.31528662 L228.685136,31.6719745 L227.288662,31.6719745 L227.288662,9.31528662 L228.685136,9.31528662 Z M235.189418,15.8359873 L235.189418,31.6719745 L233.792943,31.6719745 L233.792943,15.8359873 L235.189418,15.8359873 Z M241.693699,15.8359873 L241.693699,31.6719745 L240.297225,31.6719745 L240.297225,15.8359873 L241.693699,15.8359873 Z M248.197981,15.8359873 L248.197981,31.6719745 L246.801506,31.6719745 L246.801506,15.8359873 L248.197981,15.8359873 Z M254.702262,15.8359873 L254.702262,31.6719745 L253.305788,31.6719745 L253.305788,15.8359873 L254.702262,15.8359873 Z M261.086147,7.38964445e-13 L261.086147,31.6719745 L259.689672,31.6719745 L259.689672,7.38964445e-13 L261.086147,7.38964445e-13 Z M267.590429,15.8359873 L267.590429,31.6719745 L266.193954,31.6719745 L266.193954,15.8359873 L267.590429,15.8359873 Z M274.09471,15.8359873 L274.09471,31.6719745 L272.698235,31.6719745 L272.698235,15.8359873 L274.09471,15.8359873 Z M280.598991,15.8359873 L280.598991,31.6719745 L279.202517,31.6719745 L279.202517,15.8359873 L280.598991,15.8359873 Z M287.103273,15.8359873 L287.103273,31.6719745 L285.706798,31.6719745 L285.706798,15.8359873 L287.103273,15.8359873 Z M293.607554,9.31528662 L293.607554,31.6719745 L292.21108,31.6719745 L292.21108,9.31528662 L293.607554,9.31528662 Z M300.111836,15.8359873 L300.111836,31.6719745 L298.715361,31.6719745 L298.715361,15.8359873 L300.111836,15.8359873 Z M306.616117,15.8359873 L306.616117,31.6719745 L305.219643,31.6719745 L305.219643,15.8359873 L306.616117,15.8359873 Z M313.120399,15.8359873 L313.120399,31.6719745 L311.723924,31.6719745 L311.723924,15.8359873 L313.120399,15.8359873 Z M319.62468,15.8359873 L319.62468,31.6719745 L318.228206,31.6719745 L318.228206,15.8359873 L319.62468,15.8359873 Z M326.008565,7.38964445e-13 L326.008565,31.6719745 L324.61209,31.6719745 L324.61209,7.38964445e-13 L326.008565,7.38964445e-13 Z M332.512847,15.8359873 L332.512847,31.6719745 L331.116372,31.6719745 L331.116372,15.8359873 L332.512847,15.8359873 Z M339.017128,15.8359873 L339.017128,31.6719745 L337.620653,31.6719745 L337.620653,15.8359873 L339.017128,15.8359873 Z M345.52141,15.8359873 L345.52141,31.6719745 L344.124935,31.6719745 L344.124935,15.8359873 L345.52141,15.8359873 Z M352.025691,15.8359873 L352.025691,31.6719745 L350.629216,31.6719745 L350.629216,15.8359873 L352.025691,15.8359873 Z M358.529973,9.31528662 L358.529973,31.6719745 L357.133498,31.6719745 L357.133498,9.31528662 L358.529973,9.31528662 Z M365.034254,15.8359873 L365.034254,31.6719745 L363.637779,31.6719745 L363.637779,15.8359873 L365.034254,15.8359873 Z M371.538535,15.8359873 L371.538535,31.6719745 L370.142061,31.6719745 L370.142061,15.8359873 L371.538535,15.8359873 Z M378.042817,15.8359873 L378.042817,31.6719745 L376.646342,31.6719745 L376.646342,15.8359873 L378.042817,15.8359873 Z M384.547098,15.8359873 L384.547098,31.6719745 L383.150624,31.6719745 L383.150624,15.8359873 L384.547098,15.8359873 Z M390.930983,7.38964445e-13 L390.930983,31.6719745 L389.534508,31.6719745 L389.534508,7.38964445e-13 L390.930983,7.38964445e-13 Z M397.435265,15.8359873 L397.435265,31.6719745 L396.03879,31.6719745 L396.03879,15.8359873 L397.435265,15.8359873 Z M403.939546,15.8359873 L403.939546,31.6719745 L402.543071,31.6719745 L402.543071,15.8359873 L403.939546,15.8359873 Z M410.443828,15.8359873 L410.443828,31.6719745 L409.047353,31.6719745 L409.047353,15.8359873 L410.443828,15.8359873 Z M416.948109,15.8359873 L416.948109,31.6719745 L415.551634,31.6719745 L415.551634,15.8359873 L416.948109,15.8359873 Z M423.452391,9.31528662 L423.452391,31.6719745 L422.055916,31.6719745 L422.055916,9.31528662 L423.452391,9.31528662 Z M429.956672,15.8359873 L429.956672,31.6719745 L428.560197,31.6719745 L428.560197,15.8359873 L429.956672,15.8359873 Z M436.460954,15.8359873 L436.460954,31.6719745 L435.064479,31.6719745 L435.064479,15.8359873 L436.460954,15.8359873 Z M442.965235,15.8359873 L442.965235,31.6719745 L441.56876,31.6719745 L441.56876,15.8359873 L442.965235,15.8359873 Z M449.469516,15.8359873 L449.469516,31.6719745 L448.073042,31.6719745 L448.073042,15.8359873 L449.469516,15.8359873 Z M455.853401,7.38964445e-13 L455.853401,31.6719745 L454.456926,31.6719745 L454.456926,7.38964445e-13 L455.853401,7.38964445e-13 Z M462.357683,15.8359873 L462.357683,31.6719745 L460.961208,31.6719745 L460.961208,15.8359873 L462.357683,15.8359873 Z M468.861964,15.8359873 L468.861964,31.6719745 L467.465489,31.6719745 L467.465489,15.8359873 L468.861964,15.8359873 Z M475.366246,15.8359873 L475.366246,31.6719745 L473.969771,31.6719745 L473.969771,15.8359873 L475.366246,15.8359873 Z M481.870527,15.8359873 L481.870527,31.6719745 L480.474052,31.6719745 L480.474052,15.8359873 L481.870527,15.8359873 Z M488.374809,9.31528662 L488.374809,31.6719745 L486.978334,31.6719745 L486.978334,9.31528662 L488.374809,9.31528662 Z M494.87909,15.8359873 L494.87909,31.6719745 L493.482615,31.6719745 L493.482615,15.8359873 L494.87909,15.8359873 Z M501.383372,15.8359873 L501.383372,31.6719745 L499.986897,31.6719745 L499.986897,15.8359873 L501.383372,15.8359873 Z M507.887653,15.8359873 L507.887653,31.6719745 L506.491178,31.6719745 L506.491178,15.8359873 L507.887653,15.8359873 Z M514.391935,15.8359873 L514.391935,31.6719745 L512.99546,31.6719745 L512.99546,15.8359873 L514.391935,15.8359873 Z M520.775819,7.38964445e-13 L520.775819,31.6719745 L519.379345,31.6719745 L519.379345,7.38964445e-13 L520.775819,7.38964445e-13 Z M527.280101,15.8359873 L527.280101,31.6719745 L525.883626,31.6719745 L525.883626,15.8359873 L527.280101,15.8359873 Z M533.784382,15.8359873 L533.784382,31.6719745 L532.387907,31.6719745 L532.387907,15.8359873 L533.784382,15.8359873 Z M540.288664,15.8359873 L540.288664,31.6719745 L538.892189,31.6719745 L538.892189,15.8359873 L540.288664,15.8359873 Z M546.792945,15.8359873 L546.792945,31.6719745 L545.39647,31.6719745 L545.39647,15.8359873 L546.792945,15.8359873 Z M553.297227,9.31528662 L553.297227,31.6719745 L551.900752,31.6719745 L551.900752,9.31528662 L553.297227,9.31528662 Z M559.801508,15.8359873 L559.801508,31.6719745 L558.405033,31.6719745 L558.405033,15.8359873 L559.801508,15.8359873 Z M566.30579,15.8359873 L566.30579,31.6719745 L564.909315,31.6719745 L564.909315,15.8359873 L566.30579,15.8359873 Z M572.810071,15.8359873 L572.810071,31.6719745 L571.413596,31.6719745 L571.413596,15.8359873 L572.810071,15.8359873 Z M579.314353,15.8359873 L579.314353,31.6719745 L577.917878,31.6719745 L577.917878,15.8359873 L579.314353,15.8359873 Z M585.698237,7.38964445e-13 L585.698237,31.6719745 L584.301763,31.6719745 L584.301763,7.38964445e-13 L585.698237,7.38964445e-13 Z M592.202519,15.8359873 L592.202519,31.6719745 L590.806044,31.6719745 L590.806044,15.8359873 L592.202519,15.8359873 Z M598.7068,15.8359873 L598.7068,31.6719745 L597.310326,31.6719745 L597.310326,15.8359873 L598.7068,15.8359873 Z M605.211082,15.8359873 L605.211082,31.6719745 L603.814607,31.6719745 L603.814607,15.8359873 L605.211082,15.8359873 Z M611.715363,15.8359873 L611.715363,31.6719745 L610.318889,31.6719745 L610.318889,15.8359873 L611.715363,15.8359873 Z M618.219645,9.31528662 L618.219645,31.6719745 L616.82317,31.6719745 L616.82317,9.31528662 L618.219645,9.31528662 Z M624.723926,15.8359873 L624.723926,31.6719745 L623.327451,31.6719745 L623.327451,15.8359873 L624.723926,15.8359873 Z M631.228208,15.8359873 L631.228208,31.6719745 L629.831733,31.6719745 L629.831733,15.8359873 L631.228208,15.8359873 Z M637.732489,15.8359873 L637.732489,31.6719745 L636.336014,31.6719745 L636.336014,15.8359873 L637.732489,15.8359873 Z M644.236771,15.8359873 L644.236771,31.6719745 L642.840296,31.6719745 L642.840296,15.8359873 L644.236771,15.8359873 Z M650.620655,7.38964445e-13 L650.620655,31.6719745 L649.224181,31.6719745 L649.224181,7.38964445e-13 L650.620655,7.38964445e-13 Z M657.124937,15.8359873 L657.124937,31.6719745 L655.728462,31.6719745 L655.728462,15.8359873 L657.124937,15.8359873 Z M663.629218,15.8359873 L663.629218,31.6719745 L662.232744,31.6719745 L662.232744,15.8359873 L663.629218,15.8359873 Z M670.1335,15.8359873 L670.1335,31.6719745 L668.737025,31.6719745 L668.737025,15.8359873 L670.1335,15.8359873 Z M676.637781,15.8359873 L676.637781,31.6719745 L675.241307,31.6719745 L675.241307,15.8359873 L676.637781,15.8359873 Z M683.142063,9.31528662 L683.142063,31.6719745 L681.745588,31.6719745 L681.745588,9.31528662 L683.142063,9.31528662 Z M689.646344,15.8359873 L689.646344,31.6719745 L688.24987,31.6719745 L688.24987,15.8359873 L689.646344,15.8359873 Z M696.150626,15.8359873 L696.150626,31.6719745 L694.754151,31.6719745 L694.754151,15.8359873 L696.150626,15.8359873 Z M702.654907,15.8359873 L702.654907,31.6719745 L701.258432,31.6719745 L701.258432,15.8359873 L702.654907,15.8359873 Z M709.159189,15.8359873 L709.159189,31.6719745 L707.762714,31.6719745 L707.762714,15.8359873 L709.159189,15.8359873 Z M715.543074,7.38964445e-13 L715.543074,31.6719745 L714.146599,31.6719745 L714.146599,7.38964445e-13 L715.543074,7.38964445e-13 Z M722.047355,15.8359873 L722.047355,31.6719745 L720.65088,31.6719745 L720.65088,15.8359873 L722.047355,15.8359873 Z M728.551636,15.8359873 L728.551636,31.6719745 L727.155162,31.6719745 L727.155162,15.8359873 L728.551636,15.8359873 Z M735.055918,15.8359873 L735.055918,31.6719745 L733.659443,31.6719745 L733.659443,15.8359873 L735.055918,15.8359873 Z M741.560199,15.8359873 L741.560199,31.6719745 L740.163725,31.6719745 L740.163725,15.8359873 L741.560199,15.8359873 Z M748.064481,9.31528662 L748.064481,31.6719745 L746.668006,31.6719745 L746.668006,9.31528662 L748.064481,9.31528662 Z M754.568762,15.8359873 L754.568762,31.6719745 L753.172288,31.6719745 L753.172288,15.8359873 L754.568762,15.8359873 Z M761.073044,15.8359873 L761.073044,31.6719745 L759.676569,31.6719745 L759.676569,15.8359873 L761.073044,15.8359873 Z M767.577325,15.8359873 L767.577325,31.6719745 L766.180851,31.6719745 L766.180851,15.8359873 L767.577325,15.8359873 Z M774.081607,15.8359873 L774.081607,31.6719745 L772.685132,31.6719745 L772.685132,15.8359873 L774.081607,15.8359873 Z M780.465492,7.38964445e-13 L780.465492,31.6719745 L779.069017,31.6719745 L779.069017,7.38964445e-13 L780.465492,7.38964445e-13 Z M786.969773,15.8359873 L786.969773,31.6719745 L785.573298,31.6719745 L785.573298,15.8359873 L786.969773,15.8359873 Z M793.474055,15.8359873 L793.474055,31.6719745 L792.07758,31.6719745 L792.07758,15.8359873 L793.474055,15.8359873 Z M799.978336,15.8359873 L799.978336,31.6719745 L798.581861,31.6719745 L798.581861,15.8359873 L799.978336,15.8359873 Z M806.482618,15.8359873 L806.482618,31.6719745 L805.086143,31.6719745 L805.086143,15.8359873 L806.482618,15.8359873 Z M812.986899,9.31528662 L812.986899,31.6719745 L811.590424,31.6719745 L811.590424,9.31528662 L812.986899,9.31528662 Z M819.49118,15.8359873 L819.49118,31.6719745 L818.094706,31.6719745 L818.094706,15.8359873 L819.49118,15.8359873 Z M825.995462,15.8359873 L825.995462,31.6719745 L824.598987,31.6719745 L824.598987,15.8359873 L825.995462,15.8359873 Z M832.499743,15.8359873 L832.499743,31.6719745 L831.103269,31.6719745 L831.103269,15.8359873 L832.499743,15.8359873 Z M839.004025,15.8359873 L839.004025,31.6719745 L837.60755,31.6719745 L837.60755,15.8359873 L839.004025,15.8359873 Z M845.38791,7.38964445e-13 L845.38791,31.6719745 L843.991435,31.6719745 L843.991435,7.38964445e-13 L845.38791,7.38964445e-13 Z M851.892191,15.8359873 L851.892191,31.6719745 L850.495716,31.6719745 L850.495716,15.8359873 L851.892191,15.8359873 Z M858.396473,15.8359873 L858.396473,31.6719745 L856.999998,31.6719745 L856.999998,15.8359873 L858.396473,15.8359873 Z M864.900754,15.8359873 L864.900754,31.6719745 L863.504279,31.6719745 L863.504279,15.8359873 L864.900754,15.8359873 Z M871.405036,15.8359873 L871.405036,31.6719745 L870.008561,31.6719745 L870.008561,15.8359873 L871.405036,15.8359873 Z M877.909317,9.31528662 L877.909317,31.6719745 L876.512842,31.6719745 L876.512842,9.31528662 L877.909317,9.31528662 Z M884.413599,15.8359873 L884.413599,31.6719745 L883.017124,31.6719745 L883.017124,15.8359873 L884.413599,15.8359873 Z M890.91788,15.8359873 L890.91788,31.6719745 L889.521405,31.6719745 L889.521405,15.8359873 L890.91788,15.8359873 Z M897.422161,15.8359873 L897.422161,31.6719745 L896.025687,31.6719745 L896.025687,15.8359873 L897.422161,15.8359873 Z M903.926443,15.8359873 L903.926443,31.6719745 L902.529968,31.6719745 L902.529968,15.8359873 L903.926443,15.8359873 Z M910.310328,7.38964445e-13 L910.310328,31.6719745 L908.913853,31.6719745 L908.913853,7.38964445e-13 L910.310328,7.38964445e-13 Z M916.814609,15.8359873 L916.814609,31.6719745 L915.418134,31.6719745 L915.418134,15.8359873 L916.814609,15.8359873 Z M923.318891,15.8359873 L923.318891,31.6719745 L921.922416,31.6719745 L921.922416,15.8359873 L923.318891,15.8359873 Z M929.823172,15.8359873 L929.823172,31.6719745 L928.426697,31.6719745 L928.426697,15.8359873 L929.823172,15.8359873 Z M936.327454,15.8359873 L936.327454,31.6719745 L934.930979,31.6719745 L934.930979,15.8359873 L936.327454,15.8359873 Z M942.831735,9.31528662 L942.831735,31.6719745 L941.43526,31.6719745 L941.43526,9.31528662 L942.831735,9.31528662 Z M949.336017,15.8359873 L949.336017,31.6719745 L947.939542,31.6719745 L947.939542,15.8359873 L949.336017,15.8359873 Z M955.840298,15.8359873 L955.840298,31.6719745 L954.443823,31.6719745 L954.443823,15.8359873 L955.840298,15.8359873 Z M962.34458,15.8359873 L962.34458,31.6719745 L960.948105,31.6719745 L960.948105,15.8359873 L962.34458,15.8359873 Z M968.848861,15.8359873 L968.848861,31.6719745 L967.452386,31.6719745 L967.452386,15.8359873 L968.848861,15.8359873 Z M975.232746,7.38964445e-13 L975.232746,31.6719745 L973.836271,31.6719745 L973.836271,7.38964445e-13 L975.232746,7.38964445e-13 Z M981.737027,15.8359873 L981.737027,31.6719745 L980.340552,31.6719745 L980.340552,15.8359873 L981.737027,15.8359873 Z M988.241309,15.8359873 L988.241309,31.6719745 L986.844834,31.6719745 L986.844834,15.8359873 L988.241309,15.8359873 Z M994.74559,15.8359873 L994.74559,31.6719745 L993.349115,31.6719745 L993.349115,15.8359873 L994.74559,15.8359873 Z M1001.24987,15.8359873 L1001.24987,31.6719745 L999.853397,31.6719745 L999.853397,15.8359873 L1001.24987,15.8359873 Z M1007.75415,9.31528662 L1007.75415,31.6719745 L1006.35768,31.6719745 L1006.35768,9.31528662 L1007.75415,9.31528662 Z M1014.25843,15.8359873 L1014.25843,31.6719745 L1012.86196,31.6719745 L1012.86196,15.8359873 L1014.25843,15.8359873 Z M1020.76272,15.8359873 L1020.76272,31.6719745 L1019.36624,31.6719745 L1019.36624,15.8359873 L1020.76272,15.8359873 Z M1027.267,15.8359873 L1027.267,31.6719745 L1025.87052,31.6719745 L1025.87052,15.8359873 L1027.267,15.8359873 Z M1033.77128,15.8359873 L1033.77128,31.6719745 L1032.3748,31.6719745 L1032.3748,15.8359873 L1033.77128,15.8359873 Z M1040.15516,7.38964445e-13 L1040.15516,31.6719745 L1038.75869,31.6719745 L1038.75869,7.38964445e-13 L1040.15516,7.38964445e-13 Z M1046.65945,15.8359873 L1046.65945,31.6719745 L1045.26297,31.6719745 L1045.26297,15.8359873 L1046.65945,15.8359873 Z M1053.16373,15.8359873 L1053.16373,31.6719745 L1051.76725,31.6719745 L1051.76725,15.8359873 L1053.16373,15.8359873 Z M1059.66801,15.8359873 L1059.66801,31.6719745 L1058.27153,31.6719745 L1058.27153,15.8359873 L1059.66801,15.8359873 Z M1066.17229,15.8359873 L1066.17229,31.6719745 L1064.77581,31.6719745 L1064.77581,15.8359873 L1066.17229,15.8359873 Z M1072.67657,9.31528662 L1072.67657,31.6719745 L1071.2801,31.6719745 L1071.2801,9.31528662 L1072.67657,9.31528662 Z M1079.18085,15.8359873 L1079.18085,31.6719745 L1077.78438,31.6719745 L1077.78438,15.8359873 L1079.18085,15.8359873 Z M1085.68513,15.8359873 L1085.68513,31.6719745 L1084.28866,31.6719745 L1084.28866,15.8359873 L1085.68513,15.8359873 Z M1092.18942,15.8359873 L1092.18942,31.6719745 L1090.79294,31.6719745 L1090.79294,15.8359873 L1092.18942,15.8359873 Z M1098.6937,15.8359873 L1098.6937,31.6719745 L1097.29722,31.6719745 L1097.29722,15.8359873 L1098.6937,15.8359873 Z M1105.07758,7.38964445e-13 L1105.07758,31.6719745 L1103.68111,31.6719745 L1103.68111,7.38964445e-13 L1105.07758,7.38964445e-13 Z M1111.58186,15.8359873 L1111.58186,31.6719745 L1110.18539,31.6719745 L1110.18539,15.8359873 L1111.58186,15.8359873 Z M1118.08614,15.8359873 L1118.08614,31.6719745 L1116.68967,31.6719745 L1116.68967,15.8359873 L1118.08614,15.8359873 Z M1124.59043,15.8359873 L1124.59043,31.6719745 L1123.19395,31.6719745 L1123.19395,15.8359873 L1124.59043,15.8359873 Z M1131.09471,15.8359873 L1131.09471,31.6719745 L1129.69823,31.6719745 L1129.69823,15.8359873 L1131.09471,15.8359873 Z M1137.59899,9.31528662 L1137.59899,31.6719745 L1136.20251,31.6719745 L1136.20251,9.31528662 L1137.59899,9.31528662 Z M1144.10327,15.8359873 L1144.10327,31.6719745 L1142.7068,31.6719745 L1142.7068,15.8359873 L1144.10327,15.8359873 Z M1150.60755,15.8359873 L1150.60755,31.6719745 L1149.21108,31.6719745 L1149.21108,15.8359873 L1150.60755,15.8359873 Z M1157.11183,15.8359873 L1157.11183,31.6719745 L1155.71536,31.6719745 L1155.71536,15.8359873 L1157.11183,15.8359873 Z M1163.61612,15.8359873 L1163.61612,31.6719745 L1162.21964,31.6719745 L1162.21964,15.8359873 L1163.61612,15.8359873 Z M1170,7.38964445e-13 L1170,31.6719745 L1168.60353,31.6719745 L1168.60353,7.38964445e-13 L1170,7.38964445e-13 Z" id="lineals-footer"></path>
                                </g>
                            </g>
                        </g>
                    </g>
                </g>
            </g>
        </g>
    </g>
</svg>